<?xml version="1.0" encoding="UTF-8"?>
<svg version="1.1" xmlns="http://www.w3.org/2000/svg" width="500" height="500">
<path d="M0 0 C4.73227434 2.90827138 7.59620211 6.61849135 9.18359375 11.9375 C10.11317708 16.2456379 10.4375 19.99318382 10.4375 24.4375 C0.2075 24.4375 -10.0225 24.4375 -20.5625 24.4375 C-17.72916667 32.10416667 -17.72916667 32.10416667 -14.5625 33.4375 C-10.5310726 33.76886144 -10.5310726 33.76886144 -6.5625 33.4375 C-5.9025 32.7775 -5.2425 32.1175 -4.5625 31.4375 C-2.23721713 29.11221713 -1.71584102 29.14238975 1.4375 29.125 C4.20439789 29.26437732 6.79468479 29.5565616 9.4375 30.4375 C9.01703439 35.20277691 6.89548496 38.27902555 3.4375 41.4375 C-2.96942737 45.52702811 -10.16612342 45.18996374 -17.5625 44.4375 C-23.78515716 42.7859891 -28.11805678 38.78545131 -31.5625 33.4375 C-34.73304497 25.79936893 -34.56123092 17.25964094 -31.67578125 9.546875 C-29.29261804 5.03140786 -25.8054403 1.57610637 -21.26171875 -0.73046875 C-14.69877522 -2.75348897 -6.33805539 -2.81825745 0 0 Z M-19.5625 12.4375 C-19.8925 13.7575 -20.2225 15.0775 -20.5625 16.4375 C-14.6225 16.4375 -8.6825 16.4375 -2.5625 16.4375 C-3.87547122 10.45211763 -3.87547122 10.45211763 -7.5625 8.4375 C-13.00672452 7.83258616 -15.76316614 8.41467592 -19.5625 12.4375 Z " fill="#33314E" transform="translate(309.5625,235.5625)"/>
<path d="M0 0 C4.62 0 9.24 0 14 0 C20.76595745 20.53191489 20.76595745 20.53191489 22 30 C22.66 30 23.32 30 24 30 C24.10957031 29.39414062 24.21914063 28.78828125 24.33203125 28.1640625 C25.5064813 21.95761914 27.10612541 16.02596461 29 10 C33.62 10 38.24 10 43 10 C39.71897635 20.01814532 36.38921753 30.01794743 33 40 C32.69191406 40.91749023 32.38382812 41.83498047 32.06640625 42.78027344 C29.36233695 50.72095456 26.63686256 57.64049546 19 62 C14.1255521 63.58090202 8.88431972 63.56298231 4 62 C4.875 54.375 4.875 54.375 6 51 C7.3921875 51.0928125 7.3921875 51.0928125 8.8125 51.1875 C11.9249203 51.29031379 11.9249203 51.29031379 13.73812866 49.74647522 C15.19719385 48.09572763 15.19719385 48.09572763 14.96231079 46.05125427 C14.76930389 45.3310762 14.576297 44.61089813 14.37744141 43.86889648 C14.16661926 43.07079559 13.95579712 42.2726947 13.73858643 41.45040894 C12.58521276 37.62385996 11.32188806 33.85518718 9.9609375 30.09765625 C9.67521881 29.29388046 9.38950012 28.49010468 9.09512329 27.66197205 C8.19341443 25.12699754 7.28478374 22.59458655 6.375 20.0625 C5.45886404 17.50515406 4.54429715 14.94728209 3.63345337 12.38804626 C3.06915457 10.80318982 2.50169254 9.21945536 1.93075562 7.63697815 C0 2.22411325 0 2.22411325 0 0 Z " fill="#33314D" transform="translate(345,234)"/>
<path d="M0 0 C4.29 0 8.58 0 13 0 C13.04898438 1.80726563 13.09796875 3.61453125 13.1484375 5.4765625 C13.22348718 7.85938989 13.29903406 10.24220165 13.375 12.625 C13.4059375 13.81480469 13.436875 15.00460938 13.46875 16.23046875 C13.50742188 17.38417969 13.54609375 18.53789062 13.5859375 19.7265625 C13.6173584 20.78439941 13.6487793 21.84223633 13.68115234 22.93212891 C14.02556678 26.24599705 14.6967708 28.93393282 16 32 C18.81532057 34.28992684 18.81532057 34.28992684 22 33.9375 C25.0739886 33.2748672 25.0739886 33.2748672 26.64453125 31.0234375 C28.49307273 26.90017783 28.56394852 23.16006372 28.6875 18.6875 C28.72166016 17.85154297 28.75582031 17.01558594 28.79101562 16.15429688 C28.87305461 14.10332228 28.9382151 12.05168462 29 10 C33.29 10 37.58 10 42 10 C42 21.55 42 33.1 42 45 C37.71 45 33.42 45 29 45 C28.67 43.68 28.34 42.36 28 41 C27.236875 41.639375 26.47375 42.27875 25.6875 42.9375 C21.08946548 46.46622416 16.60260809 46.67007937 11 46 C7.20207939 44.66126936 4.56474698 42.75299597 2.125 39.5 C0.0009909 34.77997977 -0.13541573 30.52046206 -0.09765625 25.390625 C-0.0962413 24.66381531 -0.09482635 23.93700562 -0.09336853 23.18817139 C-0.08778792 20.87540506 -0.07523904 18.56273688 -0.0625 16.25 C-0.05748249 14.67838682 -0.05292002 13.10677211 -0.04882812 11.53515625 C-0.03782485 7.69006657 -0.02057361 3.8450499 0 0 Z " fill="#33314E" transform="translate(182,234)"/>
<path d="M0 0 C4.62 0 9.24 0 14 0 C17.465 6.435 17.465 6.435 21 13 C21.99 12.01 22.98 11.02 24 10 C27.35546875 9.70703125 27.35546875 9.70703125 31.1875 9.8125 C33.09595703 9.85310547 33.09595703 9.85310547 35.04296875 9.89453125 C36.50669922 9.94673828 36.50669922 9.94673828 38 10 C37.55527344 10.73605469 37.11054688 11.47210938 36.65234375 12.23046875 C36.08644531 13.20628906 35.52054687 14.18210938 34.9375 15.1875 C34.36902344 16.15042969 33.80054688 17.11335938 33.21484375 18.10546875 C31.76548078 21.55877409 31.70019857 22.51693837 33 26 C34.5700555 28.97028488 36.29953915 31.82844794 38.0625 34.6875 C38.99475069 36.20987937 39.92333087 37.73451448 40.84765625 39.26171875 C41.26023682 39.93162842 41.67281738 40.60153809 42.09790039 41.29174805 C43 43 43 43 43 45 C38.55197285 45.53455519 34.42679973 45.78429627 30 45 C27.05712245 42.42430717 25.57632295 39.53940172 24 36 C23.33514924 34.66576026 22.66910978 33.33210897 22 32 C21.37738281 33.40765625 21.37738281 33.40765625 20.7421875 34.84375 C18.83301196 38.72003542 16.97648992 41.82193223 14 45 C9.15894155 46.14547529 4.88126488 45.80211796 0 45 C0.86943811 43.20562774 1.74593914 41.41467775 2.625 39.625 C3.15609375 38.52027344 3.6871875 37.41554688 4.234375 36.27734375 C6 33 6 33 8.015625 30.50390625 C10.08779051 27.92240593 11.28515017 26.24890082 12 23 C10.3189115 18.11757938 7.87037725 14.00606627 5.07128906 9.68994141 C3.71750561 7.55436961 2.59273631 5.34105757 1.5 3.0625 C1.005 2.051875 0.51 1.04125 0 0 Z " fill="#33314D" transform="translate(230,234)"/>
<path d="M0 0 C4.29 0 8.58 0 13 0 C13 19.8 13 39.6 13 60 C8.71 60 4.42 60 0 60 C0 40.2 0 20.4 0 0 Z " fill="#33314D" transform="translate(327,219)"/>
<path d="M0 0 C4.29 0 8.58 0 13 0 C13 19.8 13 39.6 13 60 C8.71 60 4.42 60 0 60 C0 40.2 0 20.4 0 0 Z " fill="#33314F" transform="translate(160,219)"/>
<path d="M0 0 C12.54 0 25.08 0 38 0 C38 3.63 38 7.26 38 11 C30.08 11 22.16 11 14 11 C14 18.92 14 26.84 14 35 C9.38 35 4.76 35 0 35 C0 23.45 0 11.9 0 0 Z " fill="#33304D" transform="translate(112,244)"/>
<path d="M0 0 C14.19 0.33 28.38 0.66 43 1 C43 4.63 43 8.26 43 12 C29.47 12 15.94 12 2 12 C2 11.01 2 10.02 2 9 C1.34 8.67 0.68 8.34 0 8 C0 5.36 0 2.72 0 0 Z " fill="#373450" transform="translate(110,218)"/>
<path d="M0 0 C4.29 0 8.58 0 13 0 C13 4.62 13 9.24 13 14 C12.67 14 12.34 14 12 14 C11.67 10.37 11.34 6.74 11 3 C10.01 3.33 9.02 3.66 8 4 C8 3.01 8 2.02 8 1 C5.69 1 3.38 1 1 1 C1 10.9 1 20.8 1 31 C0.67 31 0.34 31 0 31 C0 20.77 0 10.54 0 0 Z " fill="#2D2D44" transform="translate(160,219)"/>
<path d="M0 0 C0.33 0.66 0.66 1.32 1 2 C3.32156597 2.40729228 5.6568787 2.74438677 8 3 C8.33 2.34 8.66 1.68 9 1 C11.5625 0.375 11.5625 0.375 14 0 C13.34 1.65 12.68 3.3 12 5 C7.38 5 2.76 5 -2 5 C-1.34 3.35 -0.68 1.7 0 0 Z " fill="#302E43" transform="translate(232,274)"/>
<path d="M0 0 C2.64 0 5.28 0 8 0 C7.01 0.495 7.01 0.495 6 1 C6.52268466 3.76276177 7.10869587 6.3260876 8 9 C7.34 9.66 6.68 10.32 6 11 C4.99735282 9.35577799 3.99794896 7.70957779 3 6.0625 C2.443125 5.14597656 1.88625 4.22945312 1.3125 3.28515625 C0 1 0 1 0 0 Z " fill="#302E45" transform="translate(230,234)"/>
<path d="M0 0 C0.33 0 0.66 0 1 0 C1 3.63 1 7.26 1 11 C-6.92 11 -14.84 11 -23 11 C-22.67 10.34 -22.34 9.68 -22 9 C-21.44014404 9.00523682 -20.88028809 9.01047363 -20.3034668 9.01586914 C-17.76482263 9.03666691 -15.22619641 9.04966904 -12.6875 9.0625 C-11.80642578 9.07087891 -10.92535156 9.07925781 -10.01757812 9.08789062 C-9.17001953 9.09111328 -8.32246094 9.09433594 -7.44921875 9.09765625 C-6.66893311 9.10289307 -5.88864746 9.10812988 -5.0847168 9.11352539 C-2.8038445 9.08137863 -2.8038445 9.08137863 0 8 C0 5.36 0 2.72 0 0 Z " fill="#2C2B3F" transform="translate(149,244)"/>
<path d="M0 0 C1.32 0 2.64 0 4 0 C4 3.63 4 7.26 4 11 C1.01754632 7.02339509 0 4.84388099 0 0 Z " fill="#302E45" transform="translate(149,219)"/>
<path d="M0 0 C4.62 0 9.24 0 14 0 C14 0.33 14 0.66 14 1 C10.7 1.33 7.4 1.66 4 2 C3.67 3.98 3.34 5.96 3 8 C1 5 1 5 0 0 Z " fill="#2A293A" transform="translate(345,234)"/>
<path d="M0 0 C2.875 -0.125 2.875 -0.125 6 0 C6.66 0.66 7.32 1.32 8 2 C6.35 2 4.7 2 3 2 C3 3.32 3 4.64 3 6 C2.01 5.67 1.02 5.34 0 5 C0 3.35 0 1.7 0 0 Z " fill="#DEE5ED" transform="translate(110,218)"/>
<path d="M0 0 C0.99 0.33 1.98 0.66 3 1 C3 3.64 3 6.28 3 9 C2.34 7.68 1.68 6.36 1 5 C0.01 5.495 0.01 5.495 -1 6 C-1.33 4.35 -1.66 2.7 -2 1 C-1.34 0.67 -0.68 0.34 0 0 Z " fill="#2A2840" transform="translate(209,270)"/>
<path d="M0 0 C-2.34545328 2.34545328 -3.95985838 2.95508888 -7.26171875 3.09765625 C-8.06222656 3.08605469 -8.86273438 3.07445312 -9.6875 3.0625 C-10.89986328 3.04896484 -10.89986328 3.04896484 -12.13671875 3.03515625 C-13.05904297 3.01775391 -13.05904297 3.01775391 -14 3 C-14 2.67 -14 2.34 -14 2 C-9.15758367 0.66416101 -5.06562383 -0.25328119 0 0 Z " fill="#26253A" transform="translate(207,277)"/>
<path d="M0 0 C0 0.33 0 0.66 0 1 C-2.64 1.33 -5.28 1.66 -8 2 C-8.33 3.32 -8.66 4.64 -9 6 C-9.99 5.34 -10.98 4.68 -12 4 C-8.41084094 -0.78554541 -5.58334594 -0.37222306 0 0 Z " fill="#252643" transform="translate(315,265)"/>
</svg>
